<?xml version="1.0" standalone="no"?>
<!DOCTYPE svg PUBLIC "-//W3C//DTD SVG 20010904//EN"
 "http://www.w3.org/TR/2001/REC-SVG-20010904/DTD/svg10.dtd">
<svg version="1.0" xmlns="http://www.w3.org/2000/svg"
 width="700.000000pt" height="700.000000pt" viewBox="0 0 700.000000 700.000000"
 preserveAspectRatio="xMidYMid meet">
<metadata>
Created by potrace 1.11, written by Peter Selinger 2001-2013
</metadata>
<g transform="translate(0.000000,700.000000) scale(0.100000,-0.100000)"
fill="#000000" stroke="none">
<path d="M3239 6989 c-148 -11 -304 -36 -337 -53 -15 -8 -35 -23 -44 -33 -10
-11 -52 -116 -93 -233 -41 -118 -78 -217 -82 -221 -5 -4 -35 -14 -68 -24 -148
-41 -405 -146 -546 -223 l-67 -36 -68 31 c-38 17 -132 61 -209 98 -128 60
-145 66 -192 62 -47 -3 -62 -11 -135 -67 -218 -167 -473 -417 -627 -614 -95
-122 -121 -167 -121 -211 0 -18 41 -115 100 -239 l100 -209 -59 -116 c-81
-159 -135 -288 -185 -444 l-43 -131 -205 -72 c-113 -40 -217 -80 -232 -89 -53
-35 -74 -101 -108 -340 -19 -134 -15 -558 6 -720 33 -252 23 -241 305 -340
118 -41 218 -78 222 -82 4 -5 14 -35 24 -68 41 -148 146 -405 223 -546 l36
-67 -31 -68 c-17 -38 -61 -132 -98 -209 -60 -128 -66 -145 -62 -192 3 -47 11
-62 67 -135 167 -218 417 -473 614 -627 122 -95 167 -121 211 -121 18 0 115
41 239 100 l209 100 116 -59 c159 -81 288 -135 444 -185 l131 -43 73 -207 c39
-114 81 -219 92 -235 30 -42 74 -58 212 -78 178 -25 691 -25 869 0 133 19 183
37 212 77 10 14 51 119 92 235 l73 210 59 18 c189 59 439 161 565 233 l63 35
200 -94 c111 -53 214 -98 229 -101 50 -12 100 12 218 104 200 155 416 369 575
568 47 59 94 124 105 144 35 67 27 100 -71 307 l-90 191 41 72 c83 147 206
442 240 576 7 29 18 56 24 61 5 4 98 38 205 76 220 76 244 88 270 131 33 52
70 374 70 603 0 186 -26 470 -52 569 -17 68 -54 91 -244 157 -281 97 -255 82
-276 155 -36 130 -115 330 -189 479 l-77 153 96 202 c117 247 122 274 67 356
-155 230 -555 629 -764 762 -78 49 -109 43 -342 -68 l-201 -95 -162 79 c-149
74 -325 144 -471 189 l-60 18 -70 202 c-39 112 -78 216 -88 232 -25 42 -87 68
-208 85 -236 35 -482 43 -720 25z m416 -1459 c501 -41 914 -227 1268 -569 747
-723 825 -1907 179 -2725 -297 -377 -725 -640 -1192 -735 -176 -35 -288 -44
-476 -38 -266 8 -490 56 -718 151 -270 114 -476 255 -686 472 -302 312 -479
672 -545 1110 -103 680 151 1378 665 1832 313 276 732 459 1150 501 123 12
210 12 355 1z m2449 -1115 c25 -71 54 -161 65 -200 40 -136 47 -141 338 -241
l171 -59 6 -46 c15 -114 26 -365 21 -479 -6 -122 -24 -312 -30 -318 -2 -2 -91
-34 -199 -72 -108 -38 -209 -76 -225 -86 -40 -24 -56 -55 -91 -179 -33 -118
-82 -255 -125 -349 l-28 -58 -37 78 c-20 44 -78 166 -129 273 l-91 194 25 115
c74 329 74 695 0 1024 l-25 116 101 213 c56 118 113 239 127 269 l26 55 27
-60 c15 -33 48 -118 73 -190z"/>
<path d="M2193 4864 c-18 -9 -42 -31 -53 -49 -19 -31 -20 -49 -20 -435 0 -445
1 -450 64 -489 29 -18 58 -20 379 -27 191 -4 348 -8 349 -8 1 -1 5 -470 8
-1043 5 -1039 5 -1042 26 -1070 12 -15 35 -36 53 -47 29 -17 64 -18 504 -20
l472 -1 38 23 c77 49 72 -36 75 1124 l2 1037 348 3 c384 3 375 2 425 72 22 31
22 32 20 433 -2 447 -3 453 -68 493 -32 20 -46 20 -1311 20 -1152 0 -1282 -2
-1311 -16z m2397 -489 l0 -214 -353 -3 c-352 -3 -353 -3 -382 -26 -69 -54 -64
24 -65 -1124 l0 -1038 -290 0 -290 0 -2 1048 -3 1047 -23 30 c-50 64 -52 64
-429 65 l-343 0 0 215 0 215 1090 0 1090 0 0 -215z"/>
</g>
</svg>
