 <svg version="1.1" xmlns="http://www.w3.org/2000/svg" id="icon-codepen" viewBox="0 0 512 512">
    <path d="M488.9,168l-224-149.3c-5.4-3.6-12.4-3.6-17.8,0L23.1,168c-4.5,3-7.1,8-7.1,13.3v149.3c0,5.4,2.7,10.3,7.1,13.3l224,149.3c2.7,1.8,5.8,2.7,8.9,2.7s6.2-0.9,8.9-2.7l224-149.3c4.5-3,7.1-8,7.1-13.3V181.3C496,176,493.3,171,488.9,168L488.9,168z M256,311.4L172.8,256l83.2-55.4l83.2,55.4L256,311.4z M272,172.8V61.9l179.2,119.4L368,236.8L272,172.8z M240,172.8l-96,64l-83.2-55.4L240,61.9V172.8z M115.2,256L48,300.8v-89.5L115.2,256z M144,275.2l96,64v110.9L60.8,330.7C60.8,330.7,144,275.2,144,275.2z M272,339.2l96-64l83.2,55.4L272,450.1V339.2z M396.8,256l67.2-44.8v89.5L396.8,256z">
    </path>
</svg>