<?xml version="1.0" encoding="utf-8"?>
<svg version="1.1" id="Layer_1" xmlns="http://www.w3.org/2000/svg" xmlns:xlink="http://www.w3.org/1999/xlink" x="0px" y="0px"
	 viewBox="0 0 96 96" style="enable-background:new 0 0 96 96;" xml:space="preserve">
<style type="text/css">
	.st0{fill:#FF7F66;}
	.st1{fill:#3E454C;}
	.st2{fill:#FFF6E5;}
	.st3{fill:#807B73;}
	.st4{fill:#FFFAEF;}
	.st5{fill:#2185C5;}
	.st6{fill:none;stroke:#231F20;stroke-width:4;stroke-linecap:round;stroke-linejoin:round;stroke-miterlimit:10;}
</style>
<path id="XMLID_39_" class="st0" d="M93.4,40.7c0.4,2.4,0.6,4.8,0.6,7.3s-0.2,4.9-0.6,7.3l-6.6,2.3c-1,3.9-2.5,7.6-4.5,10.9
	l-5.6-11.8C77.5,54,78,51.1,78,48s-0.5-6-1.3-8.8l5.6-11.8c2,3.4,3.6,7,4.5,10.9L93.4,40.7z"/>
<path id="XMLID_38_" class="st1" d="M85.3,21.1l-3,6.3l-5.6,11.8C72.9,26.9,61.5,18,48,18c-16.6,0-30,13.4-30,30s13.4,30,30,30
	c13.5,0,24.9-8.9,28.7-21.2l5.6,11.8l3,6.3c-2.9,4-6.4,7.5-10.3,10.3l-6.3-3c-3.4,2-7,3.6-10.9,4.5l-2.3,6.6
	C52.9,93.8,50.5,94,48,94s-4.9-0.2-7.3-0.6l-2.3-6.6c-3.9-1-7.6-2.5-10.9-4.5l-6.3,3c-4-2.9-7.5-6.4-10.3-10.3l3-6.3
	c-2-3.4-3.6-7-4.5-10.9l-6.6-2.3C2.2,52.9,2,50.5,2,48s0.2-4.9,0.6-7.3l6.6-2.3c1-3.9,2.5-7.6,4.5-10.9l-3-6.3
	c2.9-4,6.4-7.5,10.3-10.3l6.3,3c3.4-2,7-3.6,10.9-4.5l2.3-6.6C43.1,2.2,45.5,2,48,2s4.9,0.2,7.3,0.6l2.3,6.6c3.9,1,7.6,2.5,10.9,4.5
	l6.3-3C78.9,13.6,82.4,17.1,85.3,21.1z"/>
<path id="XMLID_35_" class="st2" d="M76.7,39.2C77.5,42,78,44.9,78,48s-0.5,6-1.3,8.8C72.9,69.1,61.5,78,48,78
	c-16.6,0-30-13.4-30-30s13.4-30,30-30C61.5,18,72.9,26.9,76.7,39.2z M65,41V31H31v10h11v30h12V41H65z"/>
<rect id="XMLID_14_" x="34" y="41" class="st3" width="8" height="3"/>
<polygon id="XMLID_15_" class="st3" points="57,44 68,44 68,34 65,34 65,41 54,41 54,71 45,71 45,74 57,74 "/>
<g id="XMLID_9_">
	<polygon id="XMLID_10_" class="st4" points="31,31 63,31 63,29 29,29 29,39 31,39 	"/>
	<path id="XMLID_11_" class="st4" d="M76.7,39.2c-1.6-5.2-4.6-9.8-8.6-13.4c3,3.2,5.2,7.1,6.6,11.4C75.5,40,76,42.9,76,46
		s-0.5,6-1.3,8.8C70.9,67.1,59.5,76,46,76c-7.8,0-14.9-3-20.2-7.8c5.5,6,13.4,9.8,22.2,9.8c13.5,0,24.9-8.9,28.7-21.2
		C77.5,54,78,51.1,78,48S77.5,42,76.7,39.2z"/>
	<rect id="XMLID_12_" x="40" y="41" class="st4" width="2" height="28"/>
</g>
<path id="XMLID_16_" class="st3" d="M20.7,50.7c0-16.6,13.4-30,30-30c7.5,0,14.3,2.8,19.6,7.3c-5.5-6.3-13.6-10.3-22.6-10.3
	c-16.6,0-30,13.4-30,30c0,9,4,17.2,10.3,22.7C23.5,65.1,20.7,58.2,20.7,50.7z"/>
<polygon id="XMLID_34_" class="st5" points="65,31 65,41 54,41 54,71 42,71 42,41 31,41 31,31 "/>
<path id="XMLID_32_" class="st6" d="M82.3,68.6c2-3.4,3.6-7,4.5-10.9l6.6-2.3c0.4-2.4,0.6-4.8,0.6-7.3s-0.2-4.9-0.6-7.3l-6.6-2.3
	c-1-3.9-2.5-7.6-4.5-10.9"/>
<line id="XMLID_31_" class="st6" x1="76.7" y1="39.2" x2="82.3" y2="27.4"/>
<line id="XMLID_30_" class="st6" x1="76.7" y1="56.8" x2="82.3" y2="68.6"/>
<path id="XMLID_29_" class="st6" d="M82.3,27.4l3-6.3c-2.9-4-6.4-7.5-10.3-10.3l-6.3,3c-3.4-2-7-3.6-10.9-4.5l-2.3-6.6
	C52.9,2.2,50.5,2,48,2s-4.9,0.2-7.3,0.6l-2.3,6.6c-3.9,1-7.6,2.5-10.9,4.5l-6.3-3c-4,2.9-7.5,6.4-10.3,10.3l3,6.3
	c-2,3.4-3.6,7-4.5,10.9l-6.6,2.3C2.2,43.1,2,45.5,2,48s0.2,4.9,0.6,7.3l6.6,2.3c1,3.9,2.5,7.6,4.5,10.9l-3,6.3
	c2.9,4,6.4,7.5,10.3,10.3l6.3-3c3.4,2,7,3.6,10.9,4.5l2.3,6.6c2.4,0.4,4.8,0.6,7.3,0.6s4.9-0.2,7.3-0.6l2.3-6.6
	c3.9-1,7.6-2.5,10.9-4.5l6.3,3c4-2.9,7.5-6.4,10.3-10.3l-3-6.3"/>
<path id="XMLID_28_" class="st6" d="M76.7,39.2C77.5,42,78,44.9,78,48s-0.5,6-1.3,8.8C72.9,69.1,61.5,78,48,78
	c-16.6,0-30-13.4-30-30s13.4-30,30-30C61.5,18,72.9,26.9,76.7,39.2z"/>
<polygon id="XMLID_27_" class="st6" points="31,31 31,41 42,41 42,71 54,71 54,41 65,41 65,31 "/>
</svg>
