<?xml version="1.0" standalone="no"?>
<!DOCTYPE svg PUBLIC "-//W3C//DTD SVG 20010904//EN"
 "http://www.w3.org/TR/2001/REC-SVG-20010904/DTD/svg10.dtd">
<svg version="1.0" xmlns="http://www.w3.org/2000/svg"
 width="700.000000pt" height="700.000000pt" viewBox="0 0 700.000000 700.000000"
 preserveAspectRatio="xMidYMid meet">
<metadata>
Created by potrace 1.11, written by Peter Selinger 2001-2013
</metadata>
<g transform="translate(0.000000,700.000000) scale(0.100000,-0.100000)"
fill="#000000" stroke="none">
<path d="M76 6993 c-29 -7 -65 -52 -71 -87 -3 -17 -5 -418 -3 -891 3 -842 3
-861 23 -887 11 -15 36 -32 55 -38 22 -6 621 -9 1644 -9 885 0 1610 -2 1611
-3 2 -2 -40 -124 -92 -273 -128 -366 -140 -399 -308 -880 -81 -231 -190 -541
-242 -690 -52 -148 -126 -358 -163 -465 -37 -107 -98 -280 -135 -385 -36 -104
-86 -246 -110 -315 -24 -69 -50 -145 -59 -170 -25 -66 -28 -104 -14 -138 7
-16 78 -122 158 -236 295 -420 753 -1075 843 -1204 50 -74 97 -139 102 -145 6
-7 28 -38 49 -69 60 -88 80 -103 136 -103 36 0 54 6 72 22 13 12 82 106 153
208 598 854 858 1225 978 1394 114 162 113 151 38 367 -27 77 -84 238 -126
359 -165 471 -207 593 -240 685 -18 52 -51 147 -73 210 -22 63 -79 225 -126
360 -415 1183 -513 1465 -507 1468 4 1 738 3 1631 5 1607 2 1625 2 1652 22 15
11 33 36 38 55 8 24 10 311 8 900 -3 748 -5 868 -18 888 -36 56 200 52 -3484
51 -1870 -1 -3410 -4 -3420 -6z"/>
</g>
</svg>
